/* XPM */
static char *result[] = {
/* columns rows colors chars-per-pixel */
"64 64 165 2 ",
"   c black",
".  c #2D2B2A",
"X  c #484443",
"o  c #3F3C3B",
"O  c #090908",
"+  c #1B1A19",
"@  c #090909",
"#  c #414141",
"$  c #4A4B4A",
"%  c #777574",
"&  c #928F8D",
"*  c #898685",
"=  c #535353",
"-  c #656463",
";  c #2E2F2E",
":  c gray11",
">  c #2B2C2B",
",  c #9B9B9B",
"<  c #BDBEBD",
"1  c #C6C7C6",
"2  c #818181",
"3  c #0E0E0D",
"4  c #AFB0AF",
"5  c #252524",
"6  c #858685",
"7  c #A1A09F",
"8  c #655F5E",
"9  c #BABAB9",
"0  c #716C6B",
"q  c #5D5D5D",
"w  c #797979",
"e  c #A7A5A4",
"r  c #736D6B",
"t  c #BCBCBB",
"y  c #7D7876",
"u  c #2D2D2D",
"i  c #A7A7A6",
"p  c #C2C3C2",
"a  c #C3C4C3",
"s  c #B0B1B0",
"d  c #ADAEAD",
"f  c #92918F",
"g  c #B7B7B7",
"h  c #A4A4A3",
"j  c #6E6968",
"k  c #807D7B",
"l  c #837F7D",
"z  c #ABA9A8",
"x  c #191919",
"c  c #151514",
"v  c #5A5A5A",
"b  c gray9",
"n  c #100F0F",
"m  c gray7",
"M  c #9A9796",
"N  c #A6A4A2",
"B  c #989898",
"V  c #504C48",
"C  c #71553B",
"Z  c #765638",
"A  c #8A694A",
"S  c #A58163",
"D  c #7D5C3E",
"F  c #68615A",
"G  c #563F29",
"H  c #AE7F53",
"J  c #BD8A5A",
"K  c #B17B4B",
"L  c #A06636",
"P  c #B98555",
"I  c #A5794F",
"U  c #18110B",
"Y  c #7C7C7C",
"T  c #85817F",
"R  c #B4B3B2",
"E  c #71553A",
"W  c #A2774D",
"Q  c #B27D4D",
"!  c #A46B3B",
"~  c #B98656",
"^  c #BB8858",
"/  c #BC8959",
"(  c #96673D",
")  c #B07A4A",
"_  c #B58050",
"`  c #AB7444",
"'  c #BA8757",
"]  c #5B5958",
"[  c #A97141",
"{  c #9F6434",
"}  c #AE7747",
"|  c #9B6B41",
" . c #160F09",
".. c #A36A3A",
"X. c #B68151",
"o. c #A76E3E",
"O. c #9C6131",
"+. c #89552B",
"@. c #140C06",
"#. c #9E6333",
"$. c #A87040",
"%. c #6C6D6C",
"&. c #0F100F",
"*. c #B88454",
"=. c #4D4E4D",
"-. c #916A45",
";. c #6E4D2F",
":. c #644022",
">. c #745335",
",. c #674B31",
"<. c #0F0B07",
"1. c #A16839",
"2. c #A5764C",
"3. c #3E2D1E",
"4. c #161616",
"5. c gray1",
"6. c #2C2014",
"7. c #090604",
"8. c #696A69",
"9. c #505150",
"0. c #767676",
"q. c #8A8887",
"w. c #464241",
"e. c #77716F",
"r. c #8E8B89",
"t. c #64605F",
"y. c #898584",
"u. c #514D4C",
"i. c #767371",
"p. c #4D4948",
"a. c #6E6866",
"s. c #2B2928",
"d. c #868280",
"f. c #484544",
"g. c #4A4A49",
"h. c #242323",
"j. c #686261",
"k. c #979694",
"l. c #A6A6A5",
"z. c #7A7573",
"x. c #3B3838",
"c. c #4F4F4E",
"v. c #6E6967",
"b. c #787775",
"n. c #2F2D2C",
"m. c #0D0C0C",
"M. c #585352",
"N. c #353333",
"B. c #8F8C8B",
"V. c #4E4B4A",
"C. c #464646",
"Z. c #020202",
"A. c #727271",
"S. c #7F7F7E",
"D. c gray46",
"F. c #565655",
"G. c #7B7A7A",
"H. c #9B9A99",
"J. c #746F6D",
"K. c #3F3E3D",
"L. c #240024",
"P. c #600060",
"I. c magenta",
"U. c #88552B",
"Y. c #130C06",
/* pixels */
"                                                                                                                                ",
"                  . X o O   + X X +   O o X .     . X o O             O o X .     . X o O   + X X +               . X o O   + X ",
"      @ # $ $ $ $ % & * = $ - & & - $ = * & % $ $ % & * = $ ;     ; $ = * & % $ $ % & * = $ - & & - $ # @   : $ $ % & * = $ - & ",
"    @ > , < 1 1 1 1 1 1 1 1 1 1 1 1 1 1 1 1 1 1 1 1 1 1 1 1 2 3 3 2 1 1 1 1 1 1 1 1 1 1 1 1 1 1 1 1 1 4 5 3 = 1 1 1 1 1 1 1 1 1 ",
"    # , > 6 1 1 1 1 1 1 1 1 1 1 1 1 1 1 1 1 1 1 1 1 1 1 1 1 7 8 8 7 1 1 1 1 1 1 1 1 1 1 1 1 1 1 1 1 1 9 0 8 * 1 1 1 1 1 1 1 1 1 ",
"    $ < 6 q w 1 1 1 1 1 1 1 1 1 1 1 1 1 1 1 1 1 1 1 1 1 1 1 e r r e 1 1 1 1 1 1 1 1 1 1 1 1 1 1 1 1 1 t y r & 1 1 1 1 1 1 1 1 1 ",
"    $ 1 1 w q 6 < 1 1 1 1 1 1 1 1 1 1 1 1 1 1 1 1 1 1 1 1 1 e r r e 1 1 1 1 1 1 1 1 1 1 1 1 1 1 1 1 1 t y r & 1 1 1 1 1 1 1 1 1 ",
"    $ 1 1 1 6 u i p 1 1 1 1 1 1 1 1 1 1 1 1 1 a s d d d d d f 8 8 f g a s d d d d d d d d d g a s d d h j 8 k d d d d s a 1 1 1 ",
"    $ 1 1 1 < i l z 1 1 1 1 1 1 1 1 1 1 1 1 1 s ; x x x x x c 3 3 c v s ; x x x x x x x x x v s ; x x b n 3 m x x x x ; s 1 1 1 ",
"    $ 1 1 1 1 p z M N 1 1 1 1 1 1 1 1 1 1 1 B V C Z Z Z Z Z Z Z Z Z A S D Z Z Z Z Z Z Z Z Z A S D Z Z Z Z Z Z Z Z Z Z C V B 1 1 ",
"    $ 1 1 1 1 1 1 N M z p 1 1 1 1 1 1 1 1 B F G H J J J J J J J J J K L P J J J J J J J J J K L P J J J J J J J J J J I U Y 1 1 ",
"    $ 1 1 1 1 1 1 1 z T R p 1 1 1 1 1 a s V G J J J J J J J J J J J K L P J J J J J J J J J K L P J J J J J J J J J J I U Y 1 1 ",
"    $ 1 1 1 1 1 1 1 p R T z 1 1 1 1 1 s ; E H J J J J J J J J J J J K L P J J J J J J J J J K L P J J J J J J J J J J I U Y 1 1 ",
"    $ 1 1 1 1 1 1 1 1 p z M N 1 1 1 B V C W J J J J J J J J J J J J K L P J J J J J J J J J K L P J J J J J J J J J J I U Y 1 1 ",
"    $ 1 1 1 1 1 1 1 1 1 1 N M z p B F G H J J J J J J J J J J J J J K L P J J J J J J J J J K L P J J J J J J J J J J I U Y 1 1 ",
"    $ 1 1 1 1 1 1 1 1 1 1 1 z l i V G J J J J J J J J J J J J J J J Q ! ~ J J J J J J J J J Q ! ~ J J J J J J J J J J I U Y 1 1 ",
"    $ 1 1 1 1 1 1 1 1 1 1 1 p i u E H J J J J J J J J J J J J J J J ^ ~ / J J J J J J J J J ^ ~ / J J J J J J J J J J I U Y 1 1 ",
"    $ 1 1 1 1 1 1 1 1 1 1 1 B V C ( ) J J J J J J J J J J J J J J J _ ` ' J J J J J J J J J _ ` ' J J J J J J J J J J I U ] & & ",
"    $ 1 1 1 1 1 1 1 1 1 1 B F G H ) ` Q ^ J J J J _ K K K K K K K K [ { } K K K K K K K K K [ { } K K K K K K K K K K |  .X r r ",
"    $ 1 1 1 1 1 1 1 1 a s V G J J J Q ..X.^ J / ~ o.O.O.O.O.O.O.O.O.O.O.O.O.O.O.O.O.O.O.O.O.O.O.O.O.O.O.O.O.O.O.O.O.O.+.@.o 8 8 ",
"    $ 1 1 1 1 1 1 1 1 s ; E H J J J ^ X...Q J ~ ! #.O.O.O.O.O.O.O.O.O.O.O.O.O.O.O.O.O.O.O.O.O.O.O.O.O.O.O.O.O.O.O.O.O.+.@.O 3 3 ",
"  . % 1 1 1 1 1 1 1 B V C W J J J J J ^ Q ` $.o.#.[ K K K K K K K K [ { } K K K K K K K K K [ { } K K K K K K K K K K |  .      ",
"  . % 1 1 1 1 1 1 B F G H J J J J J J J J $.O.#.o._ J J J J J J J J _ ` ' J J J J J J J J J _ ` ' J J J J J J J J J J I U ; ;   ",
"    $ 1 1 1 1 a s V G J J J J J J J J / ~ o.#...X.^ J J J J J J J J J J J J J J J J J J J J J J J J J J J J J J J J J I U %.%.  ",
"    $ 1 1 1 1 s ; E H J J J J J J J J ~ ! #.o.X...Q J J J J J J J J J J J J J J J J J J J J J J J J J J J J J J J J J I U &.&.  ",
"  . % 1 1 1 1 d x Z J J J J J J J J _ o.#.[ _ ^ Q *.J J J J J J J J _ ` ' J J J J J J J J J _ ` ' J J J J J J J J J J I U =.=.  ",
"  X & 1 1 1 1 d x Z J J J J J J J J K O.O.K J J J J *.Q ^ -.Z Z Z Z ;.:.>.Z Z Z Z Z Z Z Z Z ;.:.>.Z Z Z Z Z Z Z Z Z Z ,.<.=.=.  ",
"  o * 1 1 1 1 d x Z J J J J J J J J K O.O.K J J J J Q 1.2.3.                                                        @ 4.5.&.&.  ",
"  O = 1 1 1 1 d x Z J J J J J J J J K O.O.K J J J J ^ 2.6.7.                                                        # B 4.%.%.  ",
"    $ 1 1 1 1 d x Z J J J J J J J J K O.O.K J J J J -.3.7.  + X X X X X X X X X X +   O o X X X X X X X X X X o O =.8.9.0.q.]   ",
"    ; 2 7 e e f c Z J J J J J J J J K O.O.K J J J J Z     + w.e.r.t.t.y.u.i.i.p.a.s.  3 8 d.i.u.y.t.t.y.u.i.i.f.g.8.8.9.0.i.X   ",
"      3 8 r r 8 3 Z J J J J J J J J K O.O.K J J J J Z     X e.l i 9.9., > 0.0.h.j.s.  3 8 k.0.> , 9.9., > 0.0.> , 9.9., > u.X   ",
"      3 8 r r 8 3 Z J J J J J J J J K O.O.K J J J J Z     X r.i u 0.0.> , 9.9.l.z.s.  3 8 x.9., > 0.0.> , 9.9., > 0.0.> , y.X   ",
"    ; 2 7 e e f c Z J J J J J J J J K O.O.K J J J J Z     X t.9.0.q q 0.9.8.8.c.v.s.  3 8 b.8.9.0.q q 0.9.8.8.9.0.q q 0.9.t.X   ",
"    $ 1 1 1 1 g v A K K K K K Q ^ _ [ O.O.[ _ J J _ ;.    X t.9.0.q q 0.9.8.8.c.v.s.  3 8 b.8.9.0.q q 0.9.8.8.9.0.q q 0.9.t.X   ",
"  O = 1 1 1 1 a s S L L L L L ! ~ ` { O.O.{ ` J J ` :.    X y., > 0.0.> , 9.9.i l n.  m.M.N.9., > 0.0.> , 9.9., > 0.0.> , B.V.  ",
"  o * 1 1 1 1 s ; D P P P P P ~ / ' } O.O.} ' J J ' >.    X u.> , 9.9., > 0.0.u i C.  Z.m.A.0.> , 9.9., > 0.0.> , 9.9., > S.D.  ",
"  X & 1 1 1 1 d x Z J J J J J J J J K O.O.K J J J J Z     X i.0.9.8.8.9.0.q q 0.9.:   &.%.q q 0.9.8.8.9.0.q q 0.9.8.8.9.0.q ;   ",
"  . % 1 1 1 1 d x Z J J J J J J J J K O.O.K J J J J Z     X i.0.9.8.8.9.0.q q 0.9.:   &.%.q q 0.9.8.8.9.0.q q 0.9.8.8.9.0.q ;   ",
"    $ 1 1 1 1 d x Z J J J J J J J J K O.O.K J J J J Z     X p.h.l.c.c.i u 0.0.> , #   5.4.0.0.> , 9.F.l.h.G.G.h.l.F.9., > 0.%.  ",
"    $ 1 1 1 1 d x Z J J J J J J J J K O.O.K J J J J Z     X a.j.z.v.v.l i 9.9., > @   4.B 9.9., > 0.H.z.j.J.J.j.z.H.0.> , 9.&.  ",
"  . % 1 1 1 1 d x Z J J J J J J J J K O.O.K J J J J Z     X M.s.s.s.s.n.C.: : # @     @ # : : # @ ; K.s.s.s.s.s.s.K.; @ # :     ",
"  X & 1 1 1 1 d x Z J J J J J J J J K O.O.K J J J J Z     . .                       L.P.P.P.P.P.P.P.P.P.P.P.P.P.P.P.P.P.P.P.P.P.",
"  o * 1 1 1 1 d x Z J J J J J J J J K O.O.K J J J J Z     O 3 3 3 3 3 m.Z.&.&.5.4.@ P.I.I.I.I.I.I.I.I.I.I.I.I.I.I.I.I.I.I.I.I.I.",
"  O = 1 1 1 1 d x Z J J J J J J J J K O.O.K J J J J Z     o 8 8 8 8 8 M.m.%.%.4.B # P.I.I.I.I.I.I.I.I.I.I.I.I.I.I.I.I.I.I.I.I.I.",
"    $ 1 1 1 1 d x Z J J J J J J J J K O.O.K J J J J Z     X d.k.x.b.b.N.A.q q 0.9.: P.I.I.I.I.I.I.I.I.I.I.I.I.I.I.I.I.I.I.I.I.I.",
"  + - 1 1 1 1 g v A K K K K K Q ^ _ [ O.O.[ _ J J _ ;.    X i.0.9.8.8.9.0.q q 0.9.: P.I.I.I.I.I.I.I.I.I.I.I.I.I.I.I.I.I.I.I.I.I.",
"  X & 1 1 1 1 a s S L L L L L ! ~ ` { O.O.{ ` J J ` :.    X u.> , 9.9., > 0.0.> , # P.I.I.I.I.I.I.I.I.I.I.I.I.I.I.I.I.I.I.I.I.I.",
"  X & 1 1 1 1 s ; D P P P P P ~ / ' } O.O.} ' J J ' >.    X y., > 0.0.> , 9.9., > @ P.I.I.I.I.I.I.I.I.I.I.I.I.I.I.I.I.I.I.I.I.I.",
"  + - 1 1 1 1 d x Z J J J J J J J J K O.O.K J J J J Z     X t.9.0.q q 0.9.8.8.9.0.; P.I.I.I.I.I.I.I.I.I.I.I.I.I.I.I.I.I.I.I.I.I.",
"    $ 1 1 1 1 d x Z J J J J J J J J K O.O.K J J J J Z     X t.9.0.q q 0.9.8.8.F.H.K.P.I.I.I.I.I.I.I.I.I.I.I.I.I.I.I.I.I.I.I.I.I.",
"    # 4 9 t t h b Z J J J J J J J J K O.O.K J J J J Z     X y., > 0.0.> , 9.9.l.z.s.P.I.I.I.I.I.I.I.I.I.I.I.I.I.I.I.I.I.I.I.I.I.",
"    @ 5 0 y y j n Z J J J J J J J J K O.O.K J J J J Z     X u.> , 9.9., > 0.0.h.j.s.P.I.I.I.I.I.I.I.I.I.I.I.I.I.I.I.I.I.I.I.I.I.",
"      3 8 r r 8 3 Z J J J J J J J J K O.O.K J J J J Z     X i.0.9.8.8.9.0.q q G.J.s.P.I.I.I.I.I.I.I.I.I.I.I.I.I.I.I.I.I.I.I.I.I.",
"    : = * & & k m Z J J J J J J J J K O.O.K J J J J Z     X i.0.9.8.8.9.0.q q G.J.s.P.I.I.I.I.I.I.I.I.I.I.I.I.I.I.I.I.I.I.I.I.I.",
"    $ 1 1 1 1 d x Z J J J J J J J J K O.O.K J J J J Z     o f.> , 9.9., > 0.0.h.j.s.P.I.I.I.I.I.I.I.I.I.I.I.I.I.I.I.I.I.I.I.I.I.",
"    $ 1 1 1 1 d x Z J J J J J J J J K O.O.K J J J J Z     O g., > 0.0.> , 9.9.l.z.s.P.I.I.I.I.I.I.I.I.I.I.I.I.I.I.I.I.I.I.I.I.I.",
"  . % 1 1 1 1 d x Z J J J J J J J J K O.O.K J J J J Z     =.8.9.0.q q 0.9.8.8.F.H.K.P.I.I.I.I.I.I.I.I.I.I.I.I.I.I.I.I.I.I.I.I.I.",
"  X & 1 1 1 1 d x Z J J J J J J J J K O.O.K J J J J Z @ # 8.8.9.0.q q 0.9.8.8.9.0.; P.I.I.I.I.I.I.I.I.I.I.I.I.I.I.I.I.I.I.I.I.I.",
"  o * 1 1 1 1 s ; E I I I I I I I I | U.U.| I I I I ,.4.B 9.9., > 0.0.> , 9.9., > @ P.I.I.I.I.I.I.I.I.I.I.I.I.I.I.I.I.I.I.I.I.I.",
"  O = 1 1 1 1 a s V U U U U U U U U  .Y.Y. .U U U U <.5.4.0.0.> , 9.9., > 0.0.> , # P.I.I.I.I.I.I.I.I.I.I.I.I.I.I.I.I.I.I.I.I.I.",
"    $ 1 1 1 1 1 1 B Y Y Y Y Y Y Y ] X o O   ; %.&.=.=.&.%.q.i.u.y.t.t.B.S.q q 0.9.: P.I.I.I.I.I.I.I.I.I.I.I.I.I.I.I.I.I.I.I.I.I.",
"  + - 1 1 1 1 1 1 1 1 1 1 1 1 1 1 & r 8 3   ; %.&.=.=.&.%.] X X X X X V.D.; ; %.&.  P.I.I.I.I.I.I.I.I.I.I.I.I.I.I.I.I.I.I.I.I.I.",
"  X & 1 1 1 1 1 1 1 1 1 1 1 1 1 1 & r 8 3                                           P.I.I.I.I.I.I.I.I.I.I.I.I.I.I.I.I.I.I.I.I.I."
};
