/* XPM */
static char *result[] = {
/* columns rows colors chars-per-pixel */
"64 64 165 2 ",
"   c magenta",
".  c #600060",
"X  c black",
"o  c #0E0E0D",
"O  c #655F5E",
"+  c #736D6B",
"@  c #928F8D",
"#  c #C6C7C6",
"$  c #484443",
"%  c #0F100F",
"&  c #6C6D6C",
"*  c #2E2F2E",
"=  c gray46",
"-  c #4E4B4A",
";  c #5B5958",
":  c #4D4E4D",
">  c #656463",
",  c #1B1A19",
"<  c gray11",
"1  c #505150",
"2  c #767676",
"3  c #5D5D5D",
"4  c #7F7F7E",
"5  c #8F8C8B",
"6  c #64605F",
"7  c #898584",
"8  c #514D4C",
"9  c #767371",
"0  c #8A8887",
"q  c #090908",
"w  c #3F3C3B",
"e  c #7C7C7C",
"r  c #989898",
"t  c #4A4B4A",
"y  c #414141",
"u  c #9B9B9B",
"i  c #2B2C2B",
"p  c #161616",
"a  c gray1",
"s  c #0F0B07",
"d  c #18110B",
"f  c #160F09",
"g  c #130C06",
"h  c #504C48",
"j  c #B0B1B0",
"k  c #C3C4C3",
"l  c #535353",
"z  c #090909",
"x  c #674B31",
"c  c #A5794F",
"v  c #9B6B41",
"b  c #88552B",
"n  c #71553A",
"m  c #898685",
"M  c #696A69",
"N  c #765638",
"B  c #BD8A5A",
"V  c #B17B4B",
"C  c #9C6131",
"Z  c #191919",
"A  c #ADAEAD",
"S  c #3F3E3D",
"D  c #9B9A99",
"F  c #565655",
"G  c #777574",
"H  c #2D2B2A",
"J  c #2B2928",
"K  c #7A7573",
"L  c #A6A6A5",
"P  c #4A4A49",
"I  c #686261",
"U  c #242323",
"Y  c #484544",
"T  c #746F6D",
"R  c #7B7A7A",
"E  c gray7",
"W  c #807D7B",
"Q  c #100F0F",
"!  c #6E6968",
"~  c #7D7876",
"^  c #716C6B",
"/  c #252524",
"(  c gray9",
")  c #A4A4A3",
"_  c #BCBCBB",
"`  c #BABAB9",
"'  c #AFB0AF",
"]  c #745335",
"[  c #BA8757",
"{  c #AE7747",
"}  c #BC8959",
"|  c #B98656",
" . c #B98555",
".. c #7D5C3E",
"X. c #644022",
"o. c #AB7444",
"O. c #9F6434",
"+. c #A46B3B",
"@. c #A06636",
"#. c #A58163",
"$. c #6E4D2F",
"%. c #B58050",
"&. c #A97141",
"*. c #BB8858",
"=. c #B27D4D",
"-. c #8A694A",
";. c #5A5A5A",
":. c #B7B7B7",
">. c #727271",
",. c #353333",
"<. c #787775",
"1. c #3B3838",
"2. c #979694",
"3. c #868280",
"4. c #0D0C0C",
"5. c #585352",
"6. c #020202",
"7. c #240024",
"8. c #464646",
"9. c #2F2D2C",
"0. c #A7A7A6",
"q. c #837F7D",
"w. c #6E6967",
"e. c #6E6866",
"r. c #2D2D2D",
"t. c #4F4F4E",
"y. c #4D4948",
"u. c #151514",
"i. c #92918F",
"p. c #A7A5A4",
"a. c #A1A09F",
"s. c #818181",
"d. c #8E8B89",
"f. c #77716F",
"g. c #464241",
"h. c #090604",
"j. c #3E2D1E",
"k. c #916A45",
"l. c #2C2014",
"z. c #A5764C",
"x. c #A16839",
"c. c #B88454",
"v. c #9E6333",
"b. c #A76E3E",
"n. c #A36A3A",
"m. c #B68151",
"M. c #AE7F53",
"N. c #563F29",
"B. c #A87040",
"V. c #68615A",
"C. c #A2774D",
"Z. c #71553B",
"A. c #140C06",
"S. c #89552B",
"D. c #B07A4A",
"F. c #96673D",
"G. c #C2C3C2",
"H. c #ABA9A8",
"J. c #9A9796",
"K. c #A6A4A2",
"L. c #85817F",
"P. c #B4B3B2",
"I. c #BDBEBD",
"U. c #858685",
"Y. c #797979",
/* pixels */
"                                          . X X X X X X X X X X X X X X X X X X X X X o O + @ # # # # # # # # # # # # # # @ $ X ",
"                                          . X % & * * = - $ $ $ $ $ ; & % : : % & * X o O + @ # # # # # # # # # # # # # # > , X ",
"                                          . < 1 2 3 3 4 5 6 6 7 8 9 0 & % : : % & * X q w $ ; e e e e e e e r # # # # # # t X X ",
"                                          . y u i 2 2 i u 1 1 u i 2 2 p a s d d d d f g g f d d d d d d d d h j k # # # # l q X ",
"                                          . z i u 1 1 u i 2 2 i u 1 1 r p x c c c c v b b v c c c c c c c c n * j # # # # m w X ",
"                                          . * 2 1 M M 1 2 3 3 2 1 M M y z N B B B B V C C V B B B B B B B B N Z A # # # # @ $ X ",
"                                          . S D F M M 1 2 3 3 2 1 M : X X N B B B B V C C V B B B B B B B B N Z A # # # # G H X ",
"                                          . J K L 1 1 u i 2 2 i u P q X X N B B B B V C C V B B B B B B B B N Z A # # # # t X X ",
"                                          . J I U 2 2 i u 1 1 u i Y w X X N B B B B V C C V B B B B B B B B N Z A # # # # t X X ",
"                                          . J T R 3 3 2 1 M M 1 2 9 $ X X N B B B B V C C V B B B B B B B B N E W @ @ m l < X X ",
"                                          . J T R 3 3 2 1 M M 1 2 9 $ X X N B B B B V C C V B B B B B B B B N o O + + O o X X X ",
"                                          . J I U 2 2 i u 1 1 u i 8 $ X X N B B B B V C C V B B B B B B B B N Q ! ~ ~ ^ / z X X ",
"                                          . J K L 1 1 u i 2 2 i u 7 $ X X N B B B B V C C V B B B B B B B B N ( ) _ _ ` ' y X X ",
"                                          . S D F M M 1 2 3 3 2 1 6 $ X X N B B B B V C C V B B B B B B B B N Z A # # # # t X X ",
"                                          . * 2 1 M M 1 2 3 3 2 1 6 $ X X N B B B B V C C V B B B B B B B B N Z A # # # # > , X ",
"                                          . z i u 1 1 u i 2 2 i u 7 $ X X ] [ B B [ { C C { [ } |  . . . . ...* j # # # # @ $ X ",
"                                          . y u i 2 2 i u 1 1 u i 8 $ X X X.o.B B o.O.C C O.o.| +.@.@.@.@.@.#.j k # # # # @ $ X ",
"                                          . < 1 2 3 3 2 1 M M 1 2 9 $ X X $.%.B B %.&.C C &.%.*.=.V V V V V -.;.:.# # # # > , X ",
"                                          . < 1 2 3 3 >.,.<.<.1.2.3.$ X X N B B B B V C C V B B B B B B B B N Z A # # # # t X X ",
"                                          . y r p & & 4.5.O O O O O w X X N B B B B V C C V B B B B B B B B N Z A # # # # l q X ",
"                                          . z p a % % 6.4.o o o o o q X X N B B B B V C C V B B B B B B B B N Z A # # # # m w X ",
". . . . . . . . . . . . . . . . . . . . . 7.X X X X X X X X X X X H H X X N B B B B V C C V B B B B B B B B N Z A # # # # @ $ X ",
"X X < y z * S J J J J J J S * z y < < y z X X z y < < 8.9.J J J J 5.$ X X N B B B B V C C V B B B B B B B B N Z A # # # # G H X ",
"X % 1 u i 2 D K I T T I K D 2 i u 1 1 r p X z i u 1 1 0.q.w.w.K I e.$ X X N B B B B V C C V B B B B B B B B N Z A # # # # t X X ",
"X & 2 i u 1 F L U R R U L F 1 u i 2 2 p a X y u i 2 2 r.0.t.t.L U y.$ X X N B B B B V C C V B B B B B B B B N Z A # # # # t X X ",
"X * 3 2 1 M M 1 2 3 3 2 1 M M 1 2 3 3 & % X < 1 2 3 3 2 1 M M 1 2 9 $ X X N B B B B V C C V B B B B B B B B N Z A # # # # G H X ",
"X * 3 2 1 M M 1 2 3 3 2 1 M M 1 2 3 3 & % X < 1 2 3 3 2 1 M M 1 2 9 $ X X N B B B B V C C V B B B B B B B B N Z A # # # # @ $ X ",
"X = 4 i u 1 1 u i 2 2 i u 1 1 u i 2 >.4.6.X 8.0.r.2 2 i u 1 1 u i 8 $ X X ] [ B B [ { C C { [ } |  . . . . ...* j # # # # m w X ",
"X - 5 u i 2 2 i u 1 1 u i 2 2 i u 1 ,.5.4.X 9.q.0.1 1 u i 2 2 i u 7 $ X X X.o.B B o.O.C C O.o.| +.@.@.@.@.@.#.j k # # # # l q X ",
"X $ 6 1 2 3 3 2 1 M M 1 2 3 3 2 1 M <.O o X J w.t.M M 1 2 3 3 2 1 6 $ X X $.%.B B %.&.C C &.%.*.=.V V V V V -.;.:.# # # # t X X ",
"X $ 6 1 2 3 3 2 1 M M 1 2 3 3 2 1 M <.O o X J w.t.M M 1 2 3 3 2 1 6 $ X X N B B B B V C C V B B B B B B B B N u.i.p.p.a.s.* X X ",
"X $ 7 u i 2 2 i u 1 1 u i 2 2 i u 1 1.O o X J K L 1 1 u i 2 2 r.0.d.$ X X N B B B B V C C V B B B B B B B B N o O + + O o X X X ",
"X $ 8 i u 1 1 u i 2 2 i u 1 1 u i 2 2.O o X J I U 2 2 i u 1 1 0.q.f.$ X X N B B B B V C C V B B B B B B B B N o O + + O o X X X ",
"X $ 9 2 1 M M P Y 9 9 8 7 6 6 7 8 9 3.O o X J e.y.9 9 8 7 6 6 d.f.g., X X N B B B B V C C V B B B B B B B B N u.i.p.p.a.s.* X X ",
"X ; 0 2 1 M : q w $ $ $ $ $ $ $ $ $ $ w q X , $ $ $ $ $ $ $ $ $ $ , X h.j.k.B B B B V C C V B B B B B B B B N Z A # # # # t X X ",
"X & & p r y X X X X X X X X X X X X X X X X X X X X X X X X X X X X h.l.z.*.B B B B V C C V B B B B B B B B N Z A # # # # l q X ",
"X % % a p z X X X X X X X X X X X X X X X X X X X X X X X X X X X X j.z.x.=.B B B B V C C V B B B B B B B B N Z A # # # # m w X ",
"X : : s x N N N N N N N N N N ] X.$.N N N N N N N N N ] X.$.N N N N k.*.=.c.B B B B V C C V B B B B B B B B N Z A # # # # @ $ X ",
"X : : d c B B B B B B B B B B [ o.%.B B B B B B B B B [ o.%.B B B B B B B B c.=.*.%.&.v.b.%.B B B B B B B B N Z A # # # # G H X ",
"X % % d c B B B B B B B B B B B B B B B B B B B B B B B B B B B B B B B B B =.n.m.b.v.+.| B B B B B B B B M.n * j # # # # t X X ",
"X & & d c B B B B B B B B B B B B B B B B B B B B B B B B B B B B B B B B B *.m.n.v.b.| } B B B B B B B B N.h j k # # # # t X X ",
"X * * d c B B B B B B B B B B [ o.%.B B B B B B B B B [ o.%.B B B B B B B B %.b.v.C B.B B B B B B B B M.N.V.r # # # # # # G H X ",
"X X X f v V V V V V V V V V V { O.&.V V V V V V V V V { O.&.V V V V V V V V &.v.b.B.o.=.*.B B B B B C.Z.h r # # # # # # # G H X ",
"o o q A.S.C C C C C C C C C C C C C C C C C C C C C C C C C C C C C C C C C v.+.| B =.n.m.*.B B B M.n * j # # # # # # # # t X X ",
"O O w A.S.C C C C C C C C C C C C C C C C C C C C C C C C C C C C C C C C C b.| } B *.m.n.=.B B B N.h j k # # # # # # # # t X X ",
"+ + $ f v V V V V V V V V V V { O.&.V V V V V V V V V { O.&.V V V V V V V V %.B B B B *.=.o.D.M.N.V.r # # # # # # # # # # t X X ",
"@ @ ; d c B B B B B B B B B B [ o.%.B B B B B B B B B [ o.%.B B B B B B B B B B B B B B B D.F.Z.h r # # # # # # # # # # # t X X ",
"# # e d c B B B B B B B B B B } | *.B B B B B B B B B } | *.B B B B B B B B B B B B B B B M.n r.0.G.# # # # # # # # # # # t X X ",
"# # e d c B B B B B B B B B B | +.=.B B B B B B B B B | +.=.B B B B B B B B B B B B B B B N.h 0.q.H.# # # # # # # # # # # t X X ",
"# # e d c B B B B B B B B B B  .@.V B B B B B B B B B  .@.V B B B B B B B B B B B B B M.N.V.r G.H.J.K.# # # # # # # # # # t X X ",
"# # e d c B B B B B B B B B B  .@.V B B B B B B B B B  .@.V B B B B B B B B B B B B C.Z.h r # # # K.J.H.G.# # # # # # # # t X X ",
"# # e d c B B B B B B B B B B  .@.V B B B B B B B B B  .@.V B B B B B B B B B B B M.n * j # # # # # H.L.P.G.# # # # # # # t X X ",
"# # e d c B B B B B B B B B B  .@.V B B B B B B B B B  .@.V B B B B B B B B B B B N.h j k # # # # # G.P.L.H.# # # # # # # t X X ",
"# # e d c B B B B B B B B B B  .@.V B B B B B B B B B  .@.V B B B B B B B B B M.N.V.r # # # # # # # # G.H.J.K.# # # # # # t X X ",
"# # r h Z.N N N N N N N N N N ..#.-.N N N N N N N N N ..#.-.N N N N N N N N N Z.h r # # # # # # # # # # # K.J.H.G.# # # # t X X ",
"# # # j * Z Z Z Z E o Q ( Z Z * j ;.Z Z Z Z Z Z Z Z Z * j ;.u.o o u.Z Z Z Z Z * j # # # # # # # # # # # # # H.q.0.I.# # # t X X ",
"# # # k j A A A A W O ! ) A A j k :.A A A A A A A A A j k :.i.O O i.A A A A A j k # # # # # # # # # # # # # G.0.r.U.# # # t X X ",
"# # # # # # # # # @ + ~ _ # # # # # # # # # # # # # # # # # p.+ + p.# # # # # # # # # # # # # # # # # # # # # I.U.3 Y.# # t X X ",
"# # # # # # # # # @ + ~ _ # # # # # # # # # # # # # # # # # p.+ + p.# # # # # # # # # # # # # # # # # # # # # # # Y.3 U.I.t X X ",
"# # # # # # # # # m O ^ ` # # # # # # # # # # # # # # # # # a.O O a.# # # # # # # # # # # # # # # # # # # # # # # # U.i u y X X ",
"# # # # # # # # # l o / ' # # # # # # # # # # # # # # # # # s.o o s.# # # # # # # # # # # # # # # # # # # # # # # # I.u i z X X ",
"@ > t l m @ G t t < X z y t > @ @ > t l m @ G t t G @ m l t * X X * t l m @ G t t G @ m l t > @ @ > t l m @ G t t t t y z X X X ",
"$ , X q w $ H X X X X X X X , $ $ , X q w $ H X X H $ w q X X X X X X q w $ H X X H $ w q X , $ $ , X q w $ H X X X X X X X X X ",
"X X X X X X X X X X X X X X X X X X X X X X X X X X X X X X X X X X X X X X X X X X X X X X X X X X X X X X X X X X X X X X X X "
};
