/* XPM */
static char *result[] = {
/* columns rows colors chars-per-pixel */
"64 64 165 2 ",
"   c black",
".  c #484443",
"X  c #1B1A19",
"o  c #090908",
"O  c #3F3C3B",
"+  c #2D2B2A",
"@  c #928F8D",
"#  c #656463",
"$  c #4A4B4A",
"%  c #535353",
"&  c #898685",
"*  c #777574",
"=  c gray11",
"-  c #090909",
";  c #414141",
":  c #2E2F2E",
">  c #C6C7C6",
",  c #0E0E0D",
"<  c #252524",
"1  c #AFB0AF",
"2  c #818181",
"3  c #BDBEBD",
"4  c #9B9B9B",
"5  c #2B2C2B",
"6  c #655F5E",
"7  c #716C6B",
"8  c #BABAB9",
"9  c #A1A09F",
"0  c #858685",
"q  c #736D6B",
"w  c #7D7876",
"e  c #BCBCBB",
"r  c #A7A5A4",
"t  c #797979",
"y  c #5D5D5D",
"u  c #C3C4C3",
"i  c #B0B1B0",
"p  c #ADAEAD",
"a  c #807D7B",
"s  c #6E6968",
"d  c #A4A4A3",
"f  c #B7B7B7",
"g  c #92918F",
"h  c #C2C3C2",
"j  c #A7A7A6",
"k  c #2D2D2D",
"l  c #191919",
"z  c gray7",
"x  c #100F0F",
"c  c gray9",
"v  c #5A5A5A",
"b  c #151514",
"n  c #ABA9A8",
"m  c #837F7D",
"M  c #989898",
"N  c #504C48",
"B  c #71553A",
"V  c #765638",
"C  c #7D5C3E",
"Z  c #A58163",
"A  c #8A694A",
"S  c #A6A4A2",
"D  c #9A9796",
"F  c #7C7C7C",
"G  c #18110B",
"H  c #A5794F",
"J  c #BD8A5A",
"K  c #B98555",
"L  c #A06636",
"P  c #B17B4B",
"I  c #AE7F53",
"U  c #563F29",
"Y  c #68615A",
"T  c #B4B3B2",
"R  c #85817F",
"E  c #71553B",
"W  c #A2774D",
"Q  c #B98656",
"!  c #A46B3B",
"~  c #B27D4D",
"^  c #BC8959",
"/  c #BB8858",
"(  c #5B5958",
")  c #BA8757",
"_  c #AB7444",
"`  c #B58050",
"'  c #B07A4A",
"]  c #96673D",
"[  c #160F09",
"{  c #9B6B41",
"}  c #AE7747",
"|  c #9F6434",
" . c #A97141",
".. c #130C06",
"X. c #88552B",
"o. c #9C6131",
"O. c #A76E3E",
"+. c #B68151",
"@. c #A36A3A",
"#. c #9E6333",
"$. c #A87040",
"%. c #6C6D6C",
"&. c #0F100F",
"*. c #4D4E4D",
"=. c #B88454",
"-. c #0F0B07",
";. c #674B31",
":. c #745335",
">. c #644022",
",. c #6E4D2F",
"<. c #916A45",
"1. c gray1",
"2. c #161616",
"3. c #3E2D1E",
"4. c #A5764C",
"5. c #A16839",
"6. c #090604",
"7. c #2C2014",
"8. c #8A8887",
"9. c #767676",
"0. c #505150",
"q. c #696A69",
"w. c #767371",
"e. c #4A4A49",
"r. c #484544",
"t. c #514D4C",
"y. c #898584",
"u. c #64605F",
"i. c #868280",
"p. c #585352",
"a. c #6E6866",
"s. c #4D4948",
"d. c #8E8B89",
"f. c #77716F",
"g. c #464241",
"h. c #979694",
"j. c #2B2928",
"k. c #686261",
"l. c #242323",
"z. c #3B3838",
"x. c #7A7573",
"c. c #A6A6A5",
"v. c #787775",
"b. c #6E6967",
"n. c #4F4F4E",
"m. c #4E4B4A",
"M. c #8F8C8B",
"N. c #353333",
"B. c #0D0C0C",
"V. c #2F2D2C",
"C. c gray46",
"Z. c #7F7F7E",
"A. c #727271",
"S. c #020202",
"D. c #464646",
"F. c #565655",
"G. c #7B7A7A",
"H. c #9B9A99",
"J. c #746F6D",
"K. c #3F3E3D",
"L. c #600060",
"P. c #240024",
"I. c magenta",
"U. c #89552B",
"Y. c #140C06",
/* pixels */
"                                                                                                                                ",
". X   o O . +               X . . X   o O . +     + . O o             o O . +     + +                                           ",
"@ # $ % & @ * $ $ =   - ; $ # @ @ # $ % & @ * $ $ * @ & % $ :     : $ % & @ * $ $ * * $ $ $ $ $ $ $ $ $ $ $ $ $ $ $ $ ; -       ",
"> > > > > > > > > % , < 1 > > > > > > > > > > > > > > > > > 2 , , 2 > > > > > > > > > > > > > > > > > > > > > > > > 3 4 5 -     ",
"> > > > > > > > > & 6 7 8 > > > > > > > > > > > > > > > > > 9 6 6 9 > > > > > > > > > > > > > > > > > > > > > > > > 0 5 4 ;     ",
"> > > > > > > > > @ q w e > > > > > > > > > > > > > > > > > r q q r > > > > > > > > > > > > > > > > > > > > > > > t y 0 3 $     ",
"> > > > > > > > > @ q w e > > > > > > > > > > > > > > > > > r q q r > > > > > > > > > > > > > > > > > > > > > 3 0 y t > > $     ",
"> > > u i p p p p a 6 s d p p i u f p p p p p p p p p i u f g 6 6 g p p p p p i u > > > > > > > > > > > > > h j k 0 > > > $     ",
"> > > i : l l l l z , x c l l : i v l l l l l l l l l : i v b , , b l l l l l : i > > > > > > > > > > > > > n m j 3 > > > $     ",
"> > M N B V V V V V V V V V V C Z A V V V V V V V V V C Z A V V V V V V V V V B N M > > > > > > > > > > > S D n h > > > > * +   ",
"> > F G H J J J J J J J J J J K L P J J J J J J J J J K L P J J J J J J J J J I U Y M > > > > > > > > h n D S > > > > > > @ .   ",
"> > F G H J J J J J J J J J J K L P J J J J J J J J J K L P J J J J J J J J J J J U N i u > > > > > h T R n > > > > > > > & O   ",
"> > F G H J J J J J J J J J J K L P J J J J J J J J J K L P J J J J J J J J J J J I E : i > > > > > n R T h > > > > > > > % o   ",
"> > F G H J J J J J J J J J J K L P J J J J J J J J J K L P J J J J J J J J J J J J W B N M > > > S D n h > > > > > > > > $     ",
"> > F G H J J J J J J J J J J K L P J J J J J J J J J K L P J J J J J J J J J J J J J I U Y M h n D S > > > > > > > > > > # X   ",
"> > F G H J J J J J J J J J J Q ! ~ J J J J J J J J J Q ! ~ J J J J J J J J J J J J J J J U N j m n > > > > > > > > > > > @ .   ",
"> > F G H J J J J J J J J J J ^ Q / J J J J J J J J J ^ Q / J J J J J J J J J J J J J J J I E k j h > > > > > > > > > > > @ .   ",
"@ @ ( G H J J J J J J J J J J ) _ ` J J J J J J J J J ) _ ` J J J J J J J J J J J J J J J ' ] B N M > > > > > > > > > > > # X   ",
"q q . [ { P P P P P P P P P P } |  .P P P P P P P P P } |  .P P P P P P P P ` J J J J / ~ _ ' I U Y M > > > > > > > > > > $     ",
"6 6 O ..X.o.o.o.o.o.o.o.o.o.o.o.o.o.o.o.o.o.o.o.o.o.o.o.o.o.o.o.o.o.o.o.o.o.O.Q ^ J / +.@.~ J J J U N i u > > > > > > > > % o   ",
", , o ..X.o.o.o.o.o.o.o.o.o.o.o.o.o.o.o.o.o.o.o.o.o.o.o.o.o.o.o.o.o.o.o.o.o.#.! Q J ~ @.+./ J J J I E : i > > > > > > > > & O   ",
"      [ { P P P P P P P P P P } |  .P P P P P P P P P } |  .P P P P P P P P  .#.O.$._ ~ / J J J J J W B N M > > > > > > > @ .   ",
"  : : G H J J J J J J J J J J ) _ ` J J J J J J J J J ) _ ` J J J J J J J J ` O.#.o.$.J J J J J J J J I U Y M > > > > > > * +   ",
"  %.%.G H J J J J J J J J J J J J J J J J J J J J J J J J J J J J J J J J J / +.@.#.O.Q ^ J J J J J J J J U N i u > > > > $     ",
"  &.&.G H J J J J J J J J J J J J J J J J J J J J J J J J J J J J J J J J J ~ @.+.O.#.! Q J J J J J J J J I E : i > > > > $     ",
"  *.*.G H J J J J J J J J J J ) _ ` J J J J J J J J J ) _ ` J J J J J J J J =.~ / `  .#.O.` J J J J J J J J V l p > > > > * +   ",
"  *.*.-.;.V V V V V V V V V V :.>.,.V V V V V V V V V :.>.,.V V V V <./ ~ =.J J J J P o.o.P J J J J J J J J V l p > > > > @ .   ",
"  &.&.1.2.-                                                         3.4.5.~ J J J J P o.o.P J J J J J J J J V l p > > > > & O   ",
"  %.%.2.M ;                                                         6.7.4./ J J J J P o.o.P J J J J J J J J V l p > > > > % o   ",
"  ( 8.9.0.q.*.o O . . . . . . . . . . O o + . . . . . . . . . . . X   6.3.<.J J J J P o.o.P J J J J J J J J V l p > > > > $     ",
"  . w.9.0.q.q.e.r.w.w.t.y.u.u.y.t.w.i.6 , + p.a.s.w.w.t.y.u.u.d.f.g.X     V J J J J P o.o.P J J J J J J J J V b g r r 9 2 :     ",
"  . t.5 4 0.0.4 5 9.9.5 4 0.0.4 5 9.h.6 ,   j.k.l.9.9.5 4 0.0.j m f..     V J J J J P o.o.P J J J J J J J J V , 6 q q 6 ,       ",
"  . y.4 5 9.9.5 4 0.0.4 5 9.9.5 4 0.z.6 ,   j.x.c.0.0.4 5 9.9.k j d..     V J J J J P o.o.P J J J J J J J J V , 6 q q 6 ,       ",
"  . u.0.9.y y 9.0.q.q.0.9.y y 9.0.q.v.6 ,   j.b.n.q.q.0.9.y y 9.0.u..     V J J J J P o.o.P J J J J J J J J V b g r r 9 2 :     ",
"  . u.0.9.y y 9.0.q.q.0.9.y y 9.0.q.v.6 ,   j.b.n.q.q.0.9.y y 9.0.u..     ,.` J J `  .o.o. .` / ~ P P P P P A v f > > > > $     ",
"  m.M.4 5 9.9.5 4 0.0.4 5 9.9.5 4 0.N.p.B.  V.m j 0.0.4 5 9.9.5 4 y..     >._ J J _ | o.o.| _ Q ! L L L L L Z i u > > > > % o   ",
"  C.Z.5 4 0.0.4 5 9.9.5 4 0.0.4 5 9.A.B.S.  D.j k 9.9.5 4 0.0.4 5 t..     :.) J J ) } o.o.} ) ^ Q K K K K K C : i > > > > & O   ",
"  : y 9.0.q.q.0.9.y y 9.0.q.q.0.9.y y %.&.  = 0.9.y y 9.0.q.q.0.9.w..     V J J J J P o.o.P J J J J J J J J V l p > > > > @ .   ",
"  : y 9.0.q.q.0.9.y y 9.0.q.q.0.9.y y %.&.  = 0.9.y y 9.0.q.q.0.9.w..     V J J J J P o.o.P J J J J J J J J V l p > > > > * +   ",
"  %.9.5 4 0.F.c.l.G.G.l.c.F.0.4 5 9.9.2.1.  ; 4 5 9.9.k j n.n.c.l.s..     V J J J J P o.o.P J J J J J J J J V l p > > > > $     ",
"  &.0.4 5 9.H.x.k.J.J.k.x.H.9.5 4 0.0.M 2.  - 5 4 0.0.j m b.b.x.k.a..     V J J J J P o.o.P J J J J J J J J V l p > > > > $     ",
"    = ; - : K.j.j.j.j.j.j.K.: - ; = = ; -     - ; = = D.V.j.j.j.j.j.X     V J J J J P o.o.P J J J J J J J J V l p > > > > * +   ",
"L.L.L.L.L.L.L.L.L.L.L.L.L.L.L.L.L.L.L.L.L.P.                              V J J J J P o.o.P J J J J J J J J V l p > > > > @ .   ",
"I.I.I.I.I.I.I.I.I.I.I.I.I.I.I.I.I.I.I.I.I.L.- 2.1.&.&.S.B., , , , , o     V J J J J P o.o.P J J J J J J J J V l p > > > > & O   ",
"I.I.I.I.I.I.I.I.I.I.I.I.I.I.I.I.I.I.I.I.I.L.; M 2.%.%.B.p.6 6 6 6 6 O     V J J J J P o.o.P J J J J J J J J V l p > > > > % o   ",
"I.I.I.I.I.I.I.I.I.I.I.I.I.I.I.I.I.I.I.I.I.L.= 0.9.y y A.N.v.v.z.h.i..     V J J J J P o.o.P J J J J J J J J V l p > > > > $     ",
"I.I.I.I.I.I.I.I.I.I.I.I.I.I.I.I.I.I.I.I.I.L.= 0.9.y y 9.0.q.q.0.9.w..     ,.` J J `  .o.o. .` / ~ P P P P P A v f > > > > # X   ",
"I.I.I.I.I.I.I.I.I.I.I.I.I.I.I.I.I.I.I.I.I.L.; 4 5 9.9.5 4 0.0.4 5 t..     >._ J J _ | o.o.| _ Q ! L L L L L Z i u > > > > @ .   ",
"I.I.I.I.I.I.I.I.I.I.I.I.I.I.I.I.I.I.I.I.I.L.- 5 4 0.0.4 5 9.9.5 4 y..     :.) J J ) } o.o.} ) ^ Q K K K K K C : i > > > > @ .   ",
"I.I.I.I.I.I.I.I.I.I.I.I.I.I.I.I.I.I.I.I.I.L.: 9.0.q.q.0.9.y y 9.0.u..     V J J J J P o.o.P J J J J J J J J V l p > > > > # X   ",
"I.I.I.I.I.I.I.I.I.I.I.I.I.I.I.I.I.I.I.I.I.L.K.H.F.q.q.0.9.y y 9.0.u..     V J J J J P o.o.P J J J J J J J J V l p > > > > $     ",
"I.I.I.I.I.I.I.I.I.I.I.I.I.I.I.I.I.I.I.I.I.L.j.x.c.0.0.4 5 9.9.5 4 y..     V J J J J P o.o.P J J J J J J J J V c d e e 8 1 ;     ",
"I.I.I.I.I.I.I.I.I.I.I.I.I.I.I.I.I.I.I.I.I.L.j.k.l.9.9.5 4 0.0.4 5 t..     V J J J J P o.o.P J J J J J J J J V x s w w 7 < -     ",
"I.I.I.I.I.I.I.I.I.I.I.I.I.I.I.I.I.I.I.I.I.L.j.J.G.y y 9.0.q.q.0.9.w..     V J J J J P o.o.P J J J J J J J J V , 6 q q 6 ,       ",
"I.I.I.I.I.I.I.I.I.I.I.I.I.I.I.I.I.I.I.I.I.L.j.J.G.y y 9.0.q.q.0.9.w..     V J J J J P o.o.P J J J J J J J J V z a @ @ & % =     ",
"I.I.I.I.I.I.I.I.I.I.I.I.I.I.I.I.I.I.I.I.I.L.j.k.l.9.9.5 4 0.0.4 5 r.O     V J J J J P o.o.P J J J J J J J J V l p > > > > $     ",
"I.I.I.I.I.I.I.I.I.I.I.I.I.I.I.I.I.I.I.I.I.L.j.x.c.0.0.4 5 9.9.5 4 e.o     V J J J J P o.o.P J J J J J J J J V l p > > > > $     ",
"I.I.I.I.I.I.I.I.I.I.I.I.I.I.I.I.I.I.I.I.I.L.K.H.F.q.q.0.9.y y 9.0.q.*.    V J J J J P o.o.P J J J J J J J J V l p > > > > * +   ",
"I.I.I.I.I.I.I.I.I.I.I.I.I.I.I.I.I.I.I.I.I.L.: 9.0.q.q.0.9.y y 9.0.q.q.; - V J J J J P o.o.P J J J J J J J J V l p > > > > @ .   ",
"I.I.I.I.I.I.I.I.I.I.I.I.I.I.I.I.I.I.I.I.I.L.- 5 4 0.0.4 5 9.9.5 4 0.0.M 2.;.H H H H { U.U.{ H H H H H H H H E : i > > > > & O   ",
"I.I.I.I.I.I.I.I.I.I.I.I.I.I.I.I.I.I.I.I.I.L.; 4 5 9.9.5 4 0.0.4 5 9.9.2.1.-.G G G G [ Y.Y.[ G G G G G G G G N i u > > > > % o   ",
"I.I.I.I.I.I.I.I.I.I.I.I.I.I.I.I.I.I.I.I.I.L.= 0.9.y y Z.M.u.u.y.t.w.8.%.&.*.*.&.%.:   o O . ( F F F F F F F M > > > > > > $     ",
"I.I.I.I.I.I.I.I.I.I.I.I.I.I.I.I.I.I.I.I.I.L.  &.%.: : C.m.. . . . . ( %.&.*.*.&.%.:   , 6 q @ > > > > > > > > > > > > > > # X   ",
"I.I.I.I.I.I.I.I.I.I.I.I.I.I.I.I.I.I.I.I.I.L.                                          , 6 q @ > > > > > > > > > > > > > > @ .   "
};
