/* XPM */
static char *result[] = {
/* columns rows colors chars-per-pixel */
"64 64 165 2 ",
"   c black",
".  c #484443",
"X  c #928F8D",
"o  c #C6C7C6",
"O  c #736D6B",
"+  c #655F5E",
"@  c #0E0E0D",
"#  c #600060",
"$  c magenta",
"%  c #1B1A19",
"&  c #656463",
"*  c #2E2F2E",
"=  c #6C6D6C",
"-  c #0F100F",
";  c #4D4E4D",
":  c #5B5958",
">  c #4E4B4A",
",  c gray46",
"<  c #4A4B4A",
"1  c #989898",
"2  c #7C7C7C",
"3  c #3F3C3B",
"4  c #090908",
"5  c #8A8887",
"6  c #767371",
"7  c #514D4C",
"8  c #898584",
"9  c #64605F",
"0  c #8F8C8B",
"q  c #7F7F7E",
"w  c #5D5D5D",
"e  c #767676",
"r  c #505150",
"t  c gray11",
"y  c #535353",
"u  c #C3C4C3",
"i  c #B0B1B0",
"p  c #504C48",
"a  c #18110B",
"s  c #160F09",
"d  c #140C06",
"f  c #0F0B07",
"g  c gray1",
"h  c #161616",
"j  c #2B2C2B",
"k  c #9B9B9B",
"l  c #414141",
"z  c #898685",
"x  c #71553B",
"c  c #A5794F",
"v  c #9B6B41",
"b  c #89552B",
"n  c #674B31",
"m  c #090909",
"M  c #ADAEAD",
"N  c #191919",
"B  c #765638",
"V  c #BD8A5A",
"C  c #B17B4B",
"Z  c #9C6131",
"A  c #696A69",
"S  c #2D2B2A",
"D  c #777574",
"F  c #565655",
"G  c #9B9A99",
"H  c #3F3E3D",
"J  c #4A4A49",
"K  c #A6A6A5",
"L  c #7A7573",
"P  c #2B2928",
"I  c #484544",
"U  c #242323",
"Y  c #686261",
"T  c #807D7B",
"R  c gray7",
"E  c #7B7A7A",
"W  c #746F6D",
"Q  c #252524",
"!  c #716C6B",
"~  c #7D7876",
"^  c #6E6968",
"/  c #100F0F",
"(  c #AFB0AF",
")  c #BABAB9",
"_  c #BCBCBB",
"`  c #A4A4A3",
"'  c gray9",
"]  c #7D5C3E",
"[  c #B98555",
"{  c #B98656",
"}  c #BC8959",
"|  c #BA8757",
" . c #AE7747",
".. c #745335",
"X. c #A58163",
"o. c #A06636",
"O. c #A46B3B",
"+. c #AB7444",
"@. c #9F6434",
"#. c #644022",
"$. c #B7B7B7",
"%. c #5A5A5A",
"&. c #8A694A",
"*. c #B27D4D",
"=. c #BB8858",
"-. c #B58050",
";. c #A97141",
":. c #6E4D2F",
">. c #868280",
",. c #979694",
"<. c #3B3838",
"1. c #787775",
"2. c #353333",
"3. c #727271",
"4. c #585352",
"5. c #0D0C0C",
"6. c #020202",
"7. c #240024",
"8. c #2F2D2C",
"9. c #464646",
"0. c #6E6866",
"q. c #6E6967",
"w. c #837F7D",
"e. c #A7A7A6",
"r. c #4D4948",
"t. c #4F4F4E",
"y. c #2D2D2D",
"u. c #818181",
"i. c #A1A09F",
"p. c #A7A5A4",
"a. c #92918F",
"s. c #151514",
"d. c #8E8B89",
"f. c #77716F",
"g. c #464241",
"h. c #916A45",
"j. c #3E2D1E",
"k. c #090604",
"l. c #A5764C",
"z. c #2C2014",
"x. c #A16839",
"c. c #B88454",
"v. c #A76E3E",
"b. c #9E6333",
"n. c #AE7F53",
"m. c #B68151",
"M. c #A36A3A",
"N. c #563F29",
"B. c #68615A",
"V. c #A87040",
"C. c #71553A",
"Z. c #A2774D",
"A. c #88552B",
"S. c #130C06",
"D. c #B07A4A",
"F. c #96673D",
"G. c #C2C3C2",
"H. c #ABA9A8",
"J. c #A6A4A2",
"K. c #9A9796",
"L. c #B4B3B2",
"P. c #85817F",
"I. c #BDBEBD",
"U. c #858685",
"Y. c #797979",
/* pixels */
"  . X o o o o o o o o o o o o o o X O + @                                           # $ $ $ $ $ $ $ $ $ $ $ $ $ $ $ $ $ $ $ $ $ ",
"  % & o o o o o o o o o o o o o o X O + @   * = - ; ; - = : . . . . . > , * * = -   # $ $ $ $ $ $ $ $ $ $ $ $ $ $ $ $ $ $ $ $ $ ",
"    < o o o o o o 1 2 2 2 2 2 2 2 : . 3 4   * = - ; ; - = 5 6 7 8 9 9 0 q w w e r t # $ $ $ $ $ $ $ $ $ $ $ $ $ $ $ $ $ $ $ $ $ ",
"  4 y o o o o u i p a a a a a a a a s d d s a a a a f g h e e j k r r k j e e j k l # $ $ $ $ $ $ $ $ $ $ $ $ $ $ $ $ $ $ $ $ $ ",
"  3 z o o o o i * x c c c c c c c c v b b v c c c c n h 1 r r k j e e j k r r k j m # $ $ $ $ $ $ $ $ $ $ $ $ $ $ $ $ $ $ $ $ $ ",
"  . X o o o o M N B V V V V V V V V C Z Z C V V V V B m l A A r e w w e r A A r e * # $ $ $ $ $ $ $ $ $ $ $ $ $ $ $ $ $ $ $ $ $ ",
"  S D o o o o M N B V V V V V V V V C Z Z C V V V V B     ; A r e w w e r A A F G H # $ $ $ $ $ $ $ $ $ $ $ $ $ $ $ $ $ $ $ $ $ ",
"    < o o o o M N B V V V V V V V V C Z Z C V V V V B     4 J k j e e j k r r K L P # $ $ $ $ $ $ $ $ $ $ $ $ $ $ $ $ $ $ $ $ $ ",
"    < o o o o M N B V V V V V V V V C Z Z C V V V V B     3 I j k r r k j e e U Y P # $ $ $ $ $ $ $ $ $ $ $ $ $ $ $ $ $ $ $ $ $ ",
"    t y z X X T R B V V V V V V V V C Z Z C V V V V B     . 6 e r A A r e w w E W P # $ $ $ $ $ $ $ $ $ $ $ $ $ $ $ $ $ $ $ $ $ ",
"      @ + O O + @ B V V V V V V V V C Z Z C V V V V B     . 6 e r A A r e w w E W P # $ $ $ $ $ $ $ $ $ $ $ $ $ $ $ $ $ $ $ $ $ ",
"    m Q ! ~ ~ ^ / B V V V V V V V V C Z Z C V V V V B     . 7 j k r r k j e e U Y P # $ $ $ $ $ $ $ $ $ $ $ $ $ $ $ $ $ $ $ $ $ ",
"    l ( ) _ _ ` ' B V V V V V V V V C Z Z C V V V V B     . 8 k j e e j k r r K L P # $ $ $ $ $ $ $ $ $ $ $ $ $ $ $ $ $ $ $ $ $ ",
"    < o o o o M N B V V V V V V V V C Z Z C V V V V B     . 9 r e w w e r A A F G H # $ $ $ $ $ $ $ $ $ $ $ $ $ $ $ $ $ $ $ $ $ ",
"  % & o o o o M N B V V V V V V V V C Z Z C V V V V B     . 9 r e w w e r A A r e * # $ $ $ $ $ $ $ $ $ $ $ $ $ $ $ $ $ $ $ $ $ ",
"  . X o o o o i * ] [ [ [ [ [ { } |  .Z Z  .| V V | ..    . 8 k j e e j k r r k j m # $ $ $ $ $ $ $ $ $ $ $ $ $ $ $ $ $ $ $ $ $ ",
"  . X o o o o u i X.o.o.o.o.o.O.{ +.@.Z Z @.+.V V +.#.    . 7 j k r r k j e e j k l # $ $ $ $ $ $ $ $ $ $ $ $ $ $ $ $ $ $ $ $ $ ",
"  % & o o o o $.%.&.C C C C C *.=.-.;.Z Z ;.-.V V -.:.    . 6 e r A A r e w w e r t # $ $ $ $ $ $ $ $ $ $ $ $ $ $ $ $ $ $ $ $ $ ",
"    < o o o o M N B V V V V V V V V C Z Z C V V V V B     . >.,.<.1.1.2.3.w w e r t # $ $ $ $ $ $ $ $ $ $ $ $ $ $ $ $ $ $ $ $ $ ",
"  4 y o o o o M N B V V V V V V V V C Z Z C V V V V B     3 + + + + + 4.5.= = h 1 l # $ $ $ $ $ $ $ $ $ $ $ $ $ $ $ $ $ $ $ $ $ ",
"  3 z o o o o M N B V V V V V V V V C Z Z C V V V V B     4 @ @ @ @ @ 5.6.- - g h m # $ $ $ $ $ $ $ $ $ $ $ $ $ $ $ $ $ $ $ $ $ ",
"  . X o o o o M N B V V V V V V V V C Z Z C V V V V B                               7.# # # # # # # # # # # # # # # # # # # # # ",
"  S D o o o o M N B V V V V V V V V C Z Z C V V V V B     % P P P P P 8.9.t t l m     m l t t l m * H P P P P P P H * m l t     ",
"    < o o o o M N B V V V V V V V V C Z Z C V V V V B     . 0.Y L q.q.w.e.r r k j m   h 1 r r k j e G L Y W W Y L G e j k r -   ",
"    < o o o o M N B V V V V V V V V C Z Z C V V V V B     . r.U K t.t.e.y.e e j k l   g h e e j k r F K U E E U K F r k j e =   ",
"  S D o o o o M N B V V V V V V V V C Z Z C V V V V B     . 6 e r A A r e w w e r t   - = w w e r A A r e w w e r A A r e w *   ",
"  . X o o o o M N B V V V V V V V V C Z Z C V V V V B     . 6 e r A A r e w w e r t   - = w w e r A A r e w w e r A A r e w *   ",
"  3 z o o o o i * ] [ [ [ [ [ { } |  .Z Z  .| V V | ..    . 7 j k r r k j e e y.e.9.  6.5.3.e j k r r k j e e j k r r k j q ,   ",
"  4 y o o o o u i X.o.o.o.o.o.O.{ +.@.Z Z @.+.V V +.#.    . 8 k j e e j k r r e.w.8.  5.4.2.r k j e e j k r r k j e e j k 0 >   ",
"    < o o o o $.%.&.C C C C C *.=.-.;.Z Z ;.-.V V -.:.    . 9 r e w w e r A A t.q.P   @ + 1.A r e w w e r A A r e w w e r 9 .   ",
"    * u.i.p.p.a.s.B V V V V V V V V C Z Z C V V V V B     . 9 r e w w e r A A t.q.P   @ + 1.A r e w w e r A A r e w w e r 9 .   ",
"      @ + O O + @ B V V V V V V V V C Z Z C V V V V B     . d.e.y.e e j k r r K L P   @ + <.r k j e e j k r r k j e e j k 8 .   ",
"      @ + O O + @ B V V V V V V V V C Z Z C V V V V B     . f.w.e.r r k j e e U Y P   @ + ,.e j k r r k j e e j k r r k j 7 .   ",
"    * u.i.p.p.a.s.B V V V V V V V V C Z Z C V V V V B     % g.f.d.9 9 8 7 6 6 r.0.4.S @ + >.6 7 8 9 9 8 7 6 6 I J A A r e 6 .   ",
"    < o o o o M N B V V V V V V V V C Z Z C V V V V h.j.k.  % . . . . . . . . . . . S 4 3 . . . . . . . . . . 3 4 ; A r e 5 :   ",
"  4 y o o o o M N B V V V V V V V V C Z Z C V V V V =.l.z.k.                                                        l 1 h = =   ",
"  3 z o o o o M N B V V V V V V V V C Z Z C V V V V *.x.l.j.                                                        m h g - -   ",
"  . X o o o o M N B V V V V V V V V C Z Z C V V V V c.*.=.h.B B B B :.#...B B B B B B B B B :.#...B B B B B B B B B B n f ; ;   ",
"  S D o o o o M N B V V V V V V V V -.v.b.;.-.=.*.c.V V V V V V V V -.+.| V V V V V V V V V -.+.| V V V V V V V V V V c a ; ;   ",
"    < o o o o i * x n.V V V V V V V V { O.b.v.m.M.*.V V V V V V V V V V V V V V V V V V V V V V V V V V V V V V V V V c a - -   ",
"    < o o o o u i p N.V V V V V V V V } { v.b.M.m.=.V V V V V V V V V V V V V V V V V V V V V V V V V V V V V V V V V c a = =   ",
"  S D o o o o o o 1 B.N.n.V V V V V V V V V.Z b.v.-.V V V V V V V V -.+.| V V V V V V V V V -.+.| V V V V V V V V V V c a * *   ",
"  . X o o o o o o o 1 p C.Z.V V V V V =.*.+.V.v.b.;.C C C C C C C C ;.@. .C C C C C C C C C ;.@. .C C C C C C C C C C v s       ",
"  3 z o o o o o o o o i * x n.V V V =.m.M.*.V { O.b.Z Z Z Z Z Z Z Z Z Z Z Z Z Z Z Z Z Z Z Z Z Z Z Z Z Z Z Z Z Z Z Z Z A.S.4 @ @ ",
"  4 y o o o o o o o o u i p N.V V V *.M.m.=.V } { v.Z Z Z Z Z Z Z Z Z Z Z Z Z Z Z Z Z Z Z Z Z Z Z Z Z Z Z Z Z Z Z Z Z A.S.3 + + ",
"    < o o o o o o o o o o 1 B.N.n.D.+.*.=.V V V V -.C C C C C C C C ;.@. .C C C C C C C C C ;.@. .C C C C C C C C C C v s . O O ",
"  % & o o o o o o o o o o o 1 p C.F.D.V V V V V V V V V V V V V V V -.+.| V V V V V V V V V -.+.| V V V V V V V V V V c a : X X ",
"  . X o o o o o o o o o o o G.e.y.x n.V V V V V V V V V V V V V V V =.{ } V V V V V V V V V =.{ } V V V V V V V V V V c a 2 o o ",
"  . X o o o o o o o o o o o H.w.e.p N.V V V V V V V V V V V V V V V *.O.{ V V V V V V V V V *.O.{ V V V V V V V V V V c a 2 o o ",
"  % & o o o o o o o o o o J.K.H.G.1 B.N.n.V V V V V V V V V V V V V C o.[ V V V V V V V V V C o.[ V V V V V V V V V V c a 2 o o ",
"    < o o o o o o o o G.H.K.J.o o o 1 p C.Z.V V V V V V V V V V V V C o.[ V V V V V V V V V C o.[ V V V V V V V V V V c a 2 o o ",
"  4 y o o o o o o o G.L.P.H.o o o o o i * x n.V V V V V V V V V V V C o.[ V V V V V V V V V C o.[ V V V V V V V V V V c a 2 o o ",
"  3 z o o o o o o o H.P.L.G.o o o o o u i p N.V V V V V V V V V V V C o.[ V V V V V V V V V C o.[ V V V V V V V V V V c a 2 o o ",
"  . X o o o o o o J.K.H.G.o o o o o o o o 1 B.N.n.V V V V V V V V V C o.[ V V V V V V V V V C o.[ V V V V V V V V V V c a 2 o o ",
"  S D o o o o G.H.K.J.o o o o o o o o o o o 1 p C.B B B B B B B B B &.X.] B B B B B B B B B &.X.] B B B B B B B B B B C.p 1 o o ",
"    < o o o I.e.w.H.o o o o o o o o o o o o o i * N N N N N s.@ @ s.%.i * N N N N N N N N N %.i * N N ' / @ R N N N N * i o o o ",
"    < o o o U.y.e.G.o o o o o o o o o o o o o u i M M M M M a.+ + a.$.u i M M M M M M M M M $.u i M M ` ^ + T M M M M i u o o o ",
"    < o o Y.w U.I.o o o o o o o o o o o o o o o o o o o o o p.O O p.o o o o o o o o o o o o o o o o o _ ~ O X o o o o o o o o o ",
"    < I.U.w Y.o o o o o o o o o o o o o o o o o o o o o o o p.O O p.o o o o o o o o o o o o o o o o o _ ~ O X o o o o o o o o o ",
"    l k j U.o o o o o o o o o o o o o o o o o o o o o o o o i.+ + i.o o o o o o o o o o o o o o o o o ) ! + z o o o o o o o o o ",
"    m j k I.o o o o o o o o o o o o o o o o o o o o o o o o u.@ @ u.o o o o o o o o o o o o o o o o o ( Q @ y o o o o o o o o o ",
"      m l < < < < < < < < < < < < < < < < D D < < D X z y < *     * < y z X D < < D X z y < & X X & < l m   t < < D X z y < & X ",
"                                          S S     S . 3 4             4 3 . S     S . 3 4   % . . %               S . 3 4   % . ",
"                                                                                                                                "
};
