/* XPM */
static char *result[] = {
/* columns rows colors chars-per-pixel */
"64 64 6 1 ",
"  c black",
". c #736D6B",
"X c white",
"o c #C6C7C6",
"O c #000084",
"+ c #4241FF",
/* pixels */
"    ..                                                    ..    ",
"        .  ..  ..................  ..  ..  ..  ..  ..  .        ",
"      XXo.oooooooo............oooooooo.ooooooooooooooooo.o o    ",
"        o.ooooooo..          ..ooooooo.ooooo        ooooo o     ",
". o     o.oooooo..            ..oooooo.oooo XXXXXXXX ooo o     .",
".  o o oo.ooooo..              ..ooooo.oooo XO+++++X oooo o    .",
"  o o o o.ooooo.                .ooooo.oooo XOXO+O+X ooo o   X  ",
"  .o o oo.ooooo.                .ooooo.oooo X++++++X oooo o  X  ",
". . o o o.ooooo.                .ooooo.ooooo        oooo o   X .",
". .o o oo.ooooo.  . . .  . . .  .ooooo.oooo .o...... oooo o  X .",
"  . o o o.ooooo. . . . .. . . . .ooooo.oooo          ooo o   X  ",
"  .o o ooo..ooo.  o o o  o o o  .ooo..oooooo        ooooo o     ",
". o o o oooo.oo. o o o oo o o o .oo.oooooooooo.ooooooooo o     .",
".  o o ooooo....  o o o  o o o  ....oooooooooo.oooooooooo o    .",
"  o o o .....    .  .      .  .    ..................... o o    ",
"   o o..   ..  ..  .        .  ..  ..      ..  ..  ..   . o     ",
"                                                                ",
"                                                                ",
"  o o o.....o o      o ..... o o    XXXXX       o o o.....o o   ",
"   o o o o o o o    o o o o o o                  o o o o o o o  ",
". o o o o o o o      o o o o o oo           o   o o o o o o o  .",
".  o o o o o o o      o o o o o  o o o o o o o   o o o o o o o .",
"  . o o o o o o.     o o o o o oo o o o o o o   . o o o o o o.  ",
"  .o o o o o o .  X   o o o o o..o o o o o o .  .o o o o o o .  ",
". . o o o o o o.  X  o o o o o .. o o o o o o.  . o o o o o o. .",
". .o o o o o o .  X   o o o o o..o o o o o o .  .o o o o o o . .",
"  . o o o o o o.  X  o o o o o .. o o o o o o.  . o o o o o o.  ",
"   o o o o o o o  X   o o o o o..o o o o o o .   o o o o o o o  ",
". o o o o o o o      o o o o o oo o o o o o o   o o o o o o o  .",
".  o           o      o o o o o  o o o o o o o   o           o .",
"                     o o o o o oo o o o o o o                   ",
"       XXXXX        o o.....o o  o o.....o o o       XXXXX      ",
"    ..  ..  ..      ..  ..  ..      ..  ..  ..      ..  ..  ..  ",
"                                                                ",
"      XXXXX        o o.....o o        XXXXX        o o.....o o  ",
"                  o o o o o o                     o o o o o o   ",
". o           o    o o o o o    . o           o    o o o o o    ",
".  o o o o o o o  o o o o o o   .  o o o o o o o  o o o o o o   ",
"  o o o o o o o   .o o o o o   X  o o o o o o o   .o o o o o   X",
"  .o o o o o o .  . o o o o o  X  .o o o o o o .  . o o o o o  X",
". . o o o o o o.  .o o o o o   X. . o o o o o o.  .o o o o o   X",
". .o o o o o o .  . o o o o o  X. .o o o o o o .  . o o o o o  X",
"  . o o o o o o.  .o o o o o   X  . o o o o o o.  .o o o o o   X",
"  .o o o o o o .  o o o o o o     .o o o o o o .  o o o o o o   ",
". o o o o o o o    o o o o o    . o o o o o o o    o o o o o    ",
".  o o o o o o o  o o o o o o   .  o o o o o o o  o o o o o o   ",
"  o o o o o o o    o o o o o o    o o o o o o o    o o o o o o  ",
"   o o.....o o o  o o ..... o      o o.....o o o  o o ..... o   ",
"                                                                ",
"                                                                ",
"  o o o.....o o      o ..... o o  o o o.....o o      o ..... o o",
"   o o o o o o o    o o o o o o    o o o o o o o    o o o o o o ",
". o o o o o o o      o o o o o o. o o o o o o o      o o o o o o",
".  o o o o o o o      o o o o o .  o o o o o o o      o o o o o ",
"  . o o o o o o.     o o o o o o  . o o o o o o.     o o o o o o",
"  .o o o o o o .  X   o o o o o.  .o o o o o o .  X   o o o o o.",
". . o o o o o o.  X  o o o o o .. . o o o o o o.  X  o o o o o .",
". .o o o o o o .  X   o o o o o.. .o o o o o o .  X   o o o o o.",
"  . o o o o o o.  X  o o o o o .  . o o o o o o.  X  o o o o o .",
"   o o o o o o o  X   o o o o o.   o o o o o o o  X   o o o o o.",
". o o o o o o o      o o o o o o. o o o o o o o      o o o o o o",
".  o           o      o o o o o .  o           o      o o o o o ",
"                     o o o o o o                     o o o o o o",
"       XXXXX        o o.....o o        XXXXX        o o.....o o "
};
