/* XPM */
static char *result[] = {
/* columns rows colors chars-per-pixel */
"32 64 4 1 ",
"  c black",
". c #736D6B",
"X c #C6C7C6",
"o c white",
/* pixels */
"                 ..XXXXXXXXXXX. ",
"  X X.....X X    ..XXXXXXXXXXX  ",
" X X X X X X     .XXXXXXXXXXXX  ",
"  X X X X X     ..XXXXXXXXXXXX. ",
" X X X X X X    ..XXXXXXXXXXXX. ",
" .X X X X X   o  .XXXXXXXXXXXX  ",
" . X X X X X  o  .. XXXXXXXXXX  ",
" .X X X X X   o ..XX  .......   ",
" . X X X X X  o ..XX  .......   ",
" .X X X X X   o  .. XXXXXXXXXX  ",
" X X X X X X     .XXXXXXXXXXXX  ",
"  X X X X X     ..XXXXXXXXXXXX. ",
" X X X X X X    ..XXXXXXXXXXXX. ",
"  X X X X X X    .XXXXXXXXXXXX  ",
" X X ..... X     ..XXXXXXXXXXX  ",
"                 ..XXXXXXXXXXX. ",
"                 ..XXXXXXXXXXX. ",
"  X X.....X X    ..XXXXXXXXXXX  ",
" X X X X X X     .XXXXXXXXXXXX  ",
"  X X X X X     ..XXXXXXXXXXXX. ",
" X X X X X X    ..XXXXXXXXXXXX. ",
" .X X X X X   o  .XXXXXXXXXXXX  ",
" . X X X X X  o  .. XXXXXXXXXX  ",
" .X X X X X   o ..XX  .......   ",
" . X X X X X  o ..XX  .......   ",
" .X X X X X   o  .. XXXXXXXXXX  ",
" X X X X X X     .XXXXXXXXXXXX  ",
"  X X X X X     ..XXXXXXXXXXXX. ",
" X X X X X X    ..XXXXXXXXXXXX. ",
"  X X X X X X    .XXXXXXXXXXXX  ",
" X X ..... X     ..XXXXXXXXXXX  ",
"                 ..XXXXXXXXXXX. ",
"                 ..XXXXXXXXXXX. ",
"  X X.....X X    ..XXXXXXXXXXX  ",
" X X X X X X     .XXXXXXXXXXXX  ",
"  X X X X X     ..XXXXXXXXXXXX. ",
" X X X X X X    ..XXXXXXXXXXXX. ",
" .X X X X X   o  .XXXXXXXXXXXX  ",
" . X X X X X  o  .. XXXXXXXXXX  ",
" .X X X X X   o ..XX  .......   ",
" . X X X X X  o ..XX  .......   ",
" .X X X X X   o  .. XXXXXXXXXX  ",
" X X X X X X     .XXXXXXXXXXXX  ",
"  X X X X X     ..XXXXXXXXXXXX. ",
" X X X X X X    ..XXXXXXXXXXXX. ",
"  X X X X X X    .XXXXXXXXXXXX  ",
" X X ..... X     ..XXXXXXXXXXX  ",
"                 ..XXXXXXXXXXX. ",
"                 ..XXXXXXXXXXX. ",
"  X X.....X X    ..XXXXXXXXXXX  ",
" X X X X X X     .XXXXXXXXXXXX  ",
"  X X X X X     ..XXXXXXXXXXXX. ",
" X X X X X X    ..XXXXXXXXXXXX. ",
" .X X X X X   o  .XXXXXXXXXXXX  ",
" . X X X X X  o  .. XXXXXXXXXX  ",
" .X X X X X   o ..XX  .......   ",
" . X X X X X  o ..XX  .......   ",
" .X X X X X   o  .. XXXXXXXXXX  ",
" X X X X X X     .XXXXXXXXXXXX  ",
"  X X X X X     ..XXXXXXXXXXXX. ",
" X X X X X X    ..XXXXXXXXXXXX. ",
"  X X X X X X    .XXXXXXXXXXXX  ",
" X X ..... X     ..XXXXXXXXXXX  ",
"                 ..XXXXXXXXXXX. "
};
