/* XPM */
static char *result[] = {
/* columns rows colors chars-per-pixel */
"32 64 4 1 ",
"  c black",
". c #736D6B",
"X c #C6C7C6",
"o c white",
/* pixels */
" .XXXXXXXXXXX..                 ",
"  XXXXXXXXXXX..     X ..... X X ",
"  XXXXXXXXXXXX.    X X X X X X  ",
" .XXXXXXXXXXXX..    X X X X X X ",
" .XXXXXXXXXXXX..     X X X X X  ",
"  XXXXXXXXXXXX.     X X X X X X ",
"  XXXXXXXXXX ..  o   X X X X X. ",
"   .......  XX.. o  X X X X X . ",
"   .......  XX.. o   X X X X X. ",
"  XXXXXXXXXX ..  o  X X X X X . ",
"  XXXXXXXXXXXX.  o   X X X X X. ",
" .XXXXXXXXXXXX..    X X X X X X ",
" .XXXXXXXXXXXX..     X X X X X  ",
"  XXXXXXXXXXXX.     X X X X X X ",
"  XXXXXXXXXXX..    X X.....X X  ",
" .XXXXXXXXXXX..                 ",
" .XXXXXXXXXXX..                 ",
"  XXXXXXXXXXX..     X ..... X X ",
"  XXXXXXXXXXXX.    X X X X X X  ",
" .XXXXXXXXXXXX..    X X X X X X ",
" .XXXXXXXXXXXX..     X X X X X  ",
"  XXXXXXXXXXXX.     X X X X X X ",
"  XXXXXXXXXX ..  o   X X X X X. ",
"   .......  XX.. o  X X X X X . ",
"   .......  XX.. o   X X X X X. ",
"  XXXXXXXXXX ..  o  X X X X X . ",
"  XXXXXXXXXXXX.  o   X X X X X. ",
" .XXXXXXXXXXXX..    X X X X X X ",
" .XXXXXXXXXXXX..     X X X X X  ",
"  XXXXXXXXXXXX.     X X X X X X ",
"  XXXXXXXXXXX..    X X.....X X  ",
" .XXXXXXXXXXX..                 ",
" .XXXXXXXXXXX..                 ",
"  XXXXXXXXXXX..     X ..... X X ",
"  XXXXXXXXXXXX.    X X X X X X  ",
" .XXXXXXXXXXXX..    X X X X X X ",
" .XXXXXXXXXXXX..     X X X X X  ",
"  XXXXXXXXXXXX.     X X X X X X ",
"  XXXXXXXXXX ..  o   X X X X X. ",
"   .......  XX.. o  X X X X X . ",
"   .......  XX.. o   X X X X X. ",
"  XXXXXXXXXX ..  o  X X X X X . ",
"  XXXXXXXXXXXX.  o   X X X X X. ",
" .XXXXXXXXXXXX..    X X X X X X ",
" .XXXXXXXXXXXX..     X X X X X  ",
"  XXXXXXXXXXXX.     X X X X X X ",
"  XXXXXXXXXXX..    X X.....X X  ",
" .XXXXXXXXXXX..                 ",
" .XXXXXXXXXXX..                 ",
"  XXXXXXXXXXX..     X ..... X X ",
"  XXXXXXXXXXXX.    X X X X X X  ",
" .XXXXXXXXXXXX..    X X X X X X ",
" .XXXXXXXXXXXX..     X X X X X  ",
"  XXXXXXXXXXXX.     X X X X X X ",
"  XXXXXXXXXX ..  o   X X X X X. ",
"   .......  XX.. o  X X X X X . ",
"   .......  XX.. o   X X X X X. ",
"  XXXXXXXXXX ..  o  X X X X X . ",
"  XXXXXXXXXXXX.  o   X X X X X. ",
" .XXXXXXXXXXXX..    X X X X X X ",
" .XXXXXXXXXXXX..     X X X X X  ",
"  XXXXXXXXXXXX.     X X X X X X ",
"  XXXXXXXXXXX..    X X.....X X  ",
" .XXXXXXXXXXX..                 "
};
